<svg xmlns="http://www.w3.org/2000/svg" xmlns:xlink="http://www.w3.org/1999/xlink" viewBox="0 0 1022.16 246.36"><defs><style>.a{fill:none;}.b{clip-path:url(#a);}.c{fill:#afd8f3;}.d{fill:#f4d3aa;}.e{fill:#78a6d1;}.f{fill:#fff;}.g{fill:#4e5057;}.h{fill:#4f5057;}.i{fill:#dabd9d;}.j{fill:#336390;}.k{fill:#6290c3;}</style><clipPath id="a" transform="translate(-325.53 -293.64)"><rect class="a" x="325.65" y="293.64" width="1022.04" height="246.36"/></clipPath></defs><title>navbar-logo</title><g class="b"><path class="c" d="M571.89,416.82A123.18,123.18,0,1,1,448.71,293.64,123.18,123.18,0,0,1,571.89,416.82Z" transform="translate(-325.53 -293.64)"/></g><path class="d" d="M448.28,490.82a6.26,6.26,0,0,0-2.41-1.48V468.4h-3V488a7.36,7.36,0,0,0-8.68,1.55c-2.89,2.93-.43,11.5-.39,10.08,0-.82,1.31-1.91,3-3.08.08,3,1,5.73,1,4.88.08-2.67,13.14-8,10.46-10.6Z" transform="translate(-325.53 -293.64)"/><path class="d" d="M449.85,491.28a6.26,6.26,0,0,1,2.41-1.48V468.86h3v19.59a7.37,7.37,0,0,1,8.69,1.56c2.89,2.92.43,11.49.38,10.08,0-.83-1.3-1.91-3-3.09-.08,3-1,5.73-1,4.88-.08-2.66-13.14-8-10.46-10.6Z" transform="translate(-325.53 -293.64)"/><path class="e" d="M517.46,405.2a10.48,10.48,0,0,0-10.94-5.95,9.57,9.57,0,0,0-3.13,1.14c-.11-12.79-.51-25.15-1.14-37a16.92,16.92,0,0,0-5-12,17.19,17.19,0,0,0-1.68-1.46c-.11-.32-.22-.64-.34-1-1.89-5-.17-9.45-2-11.55-2.46,0-10.66,1.32-14.81,3.33a24.66,24.66,0,0,0-6.09,4.18q-6.88-.63-14.45-.91a65.78,65.78,0,0,1-9.54-3.15,66.81,66.81,0,0,1-15.39-9l12.59,11a64.41,64.41,0,0,1-6.43-2.29,66.12,66.12,0,0,1-15.38-9l14.28,12.49c-3.51.15-6.92.37-10.21.63a25.18,25.18,0,0,0-6.75-4.81c-4.15-2-12.35-3.28-14.81-3.33-1.79,2.1-.07,6.53-2,11.56l-.24.65a17,17,0,0,0-8.32,14.59c-1,11.53-1.65,23.88-1.82,37a9.61,9.61,0,0,0-3.05-1.1A10.48,10.48,0,0,0,380,405.2a56.79,56.79,0,0,0,5.85,49.69,125.48,125.48,0,0,0,8.74-21.27.74.74,0,0,1,0-.14q.45,8.91,1.18,17.25a17,17,0,0,0,5,12,17.36,17.36,0,0,0,12,5,353.73,353.73,0,0,0,38.58,1.85c12.23-.08,23.59-.78,33.95-1.85a17,17,0,0,0,12-5,17.44,17.44,0,0,0,5-12c.29-5.49.53-11.1.72-16.8a124.59,124.59,0,0,0,8.64,21,56.79,56.79,0,0,0,5.85-49.69Z" transform="translate(-325.53 -293.64)"/><path class="f" d="M445.54,373c4.32,11.52,6.91,35.2-10.87,46.21a33.56,33.56,0,0,1-46.21-10.86c-10.86-17.52,1-37.47,10.86-46.22,2.28-2,14.72-13.07,28.41-8.9,11.74,3.58,16.36,15.89,17.81,19.77Z" transform="translate(-325.53 -293.64)"/><path class="f" d="M453.61,374.33c-4.32,11.52-6.92,35.21,10.86,46.22a33.58,33.58,0,0,0,46.22-10.86c10.85-17.53-1-37.47-10.86-46.22-2.28-2-14.72-13.07-28.42-8.9-11.73,3.58-16.35,15.89-17.8,19.76Z" transform="translate(-325.53 -293.64)"/><path class="f" d="M448.93,424.32c-19.05,0-35.94,32-31.82,43.75a2.5,2.5,0,0,0,.15.38c10,.85,20.79,1.35,32.37,1.27h.14l.21,0,.29,0c10.81-.09,20.93-.67,30.27-1.55.08-.18.15-.37.22-.56,4.13-11.65-12.73-43.29-31.83-43.29Z" transform="translate(-325.53 -293.64)"/><path class="g" d="M483,389.59c-1.76,0-3.18-2.33-3.18-5.21a7.45,7.45,0,0,1,.7-3.25,3.93,3.93,0,0,0-1.43-.29c-3.19,0-5.78,4.25-5.78,9.5s2.59,9.49,5.78,9.49,5.79-4.25,5.79-9.49a15,15,0,0,0-.09-1.66,2.44,2.44,0,0,1-1.79.91Z" transform="translate(-325.53 -293.64)"/><path class="h" d="M483.23,389.15c-3.36-.34-3-5.82-2.12-7.94a.35.35,0,0,0-.22-.48c-3.45-1.07-6,1.4-7.21,4.48-1.49,3.87-1.33,9,1.1,12.51,1.64,2.34,4.51,3.38,7,1.64,3.31-2.31,4-7.14,3.64-10.84,0-.41-.77-.31-1-.12a2,2,0,0,1-1.36.74c-.65.09-.87,1-.09.89a3.56,3.56,0,0,0,2.23-1.07l-1-.13c.27,3-.14,6.43-2.07,8.83-2.12,2.64-5,1.74-6.61-.87a13.33,13.33,0,0,1-1.43-9c.51-2.89,2.35-7.39,6.09-6.23l-.23-.48c-1.16,2.74-1.15,8.56,2.84,9,.59.06,1.17-.8.39-.88Z" transform="translate(-325.53 -293.64)"/><path class="g" d="M419.76,388.87c-1.75,0-3.17-2.34-3.17-5.21a7.56,7.56,0,0,1,.69-3.25,3.68,3.68,0,0,0-1.42-.29c-3.2,0-5.79,4.25-5.79,9.49s2.59,9.49,5.79,9.49,5.78-4.25,5.78-9.49a14.8,14.8,0,0,0-.09-1.65,2.42,2.42,0,0,1-1.79.91Z" transform="translate(-325.53 -293.64)"/><path class="h" d="M420,388.43c-3.37-.35-3-5.83-2.12-7.94a.36.36,0,0,0-.23-.48c-3.44-1.07-6,1.39-7.21,4.48-1.49,3.87-1.33,9,1.11,12.51,1.63,2.34,4.51,3.38,7,1.64,3.3-2.32,4-7.14,3.63-10.84,0-.41-.77-.32-1-.13a2,2,0,0,1-1.35.75c-.66.08-.88,1-.1.89a3.56,3.56,0,0,0,2.23-1.07l-1-.13c.27,3-.13,6.43-2.07,8.83-2.12,2.64-5,1.74-6.61-.88a13.36,13.36,0,0,1-1.43-9c.51-2.89,2.35-7.39,6.09-6.23l-.23-.48c-1.16,2.74-1.15,8.56,2.85,9,.59.06,1.17-.79.39-.87Z" transform="translate(-325.53 -293.64)"/><polygon class="d" points="138.28 125.7 123.71 144.9 109.14 125.7 123.71 111.13 138.28 125.7 138.28 125.7"/><polygon class="i" points="138.28 125.7 123.71 144.9 123.71 111.13 138.28 125.7 138.28 125.7"/><path class="j" d="M426.44,338.52c-3.72-1.77-4.83,0-1.3,1.63a49.17,49.17,0,0,1,15.5,15.55,83.59,83.59,0,0,1,8.5,19.55,49,49,0,0,0-22.7-36.73Z" transform="translate(-325.53 -293.64)"/><path class="j" d="M473.21,336.53c3.72-1.77,4.83,0,1.3,1.63A49.17,49.17,0,0,0,459,353.71a83.41,83.41,0,0,0-8.5,19.55,49,49,0,0,1,22.7-36.73Z" transform="translate(-325.53 -293.64)"/><path class="k" d="M432.73,445a12.85,12.85,0,0,0,10.5,0c.25-.11-.77-1.77-1.26-1.56a12.39,12.39,0,0,1-10.1,0c-.47-.21.43,1.34.86,1.53Z" transform="translate(-325.53 -293.64)"/><path class="k" d="M453.85,445a11.85,11.85,0,0,0,10.5,0c.27-.13-.79-1.79-1.25-1.56a11.35,11.35,0,0,1-10.1,0c-.45-.22.43,1.32.85,1.53Z" transform="translate(-325.53 -293.64)"/><path class="k" d="M443.92,454a11,11,0,0,0,10.5,0c.29-.15-.81-1.8-1.25-1.56a10.53,10.53,0,0,1-10.1,0c-.43-.23.44,1.31.85,1.53Z" transform="translate(-325.53 -293.64)"/><path class="k" d="M428.79,462.12a13.43,13.43,0,0,0,10.5,0c.25-.1-.75-1.76-1.25-1.55a13,13,0,0,1-10.1,0c-.48-.2.43,1.35.85,1.53Z" transform="translate(-325.53 -293.64)"/><path class="k" d="M457.42,461.8a12.22,12.22,0,0,0,10.5,0c.27-.12-.77-1.77-1.25-1.55a11.79,11.79,0,0,1-10.1,0c-.46-.21.43,1.33.85,1.53Z" transform="translate(-325.53 -293.64)"/><path class="f" d="M671.39,453.7v-45a38,38,0,0,0-15.18-3.6c-10.79,0-20.49,6.25-20.49,27.06,0,22.52,9.23,28.15,18.62,28.15a25,25,0,0,0,17-6.57Zm-58.82-21c0-31,19.4-43.32,35.35-43.32,11.42,0,18.15,4.22,23.47,10.63v-23.3H660.75V363.3h29.56c2.66,0,3.91,2,3.91,5.31v87c0,1.72,2,4.22,3.91,4.22h5.63v13H675.92c-2.34,0-3.75-3.44-4.22-9.22-5.32,6.1-13.61,10.48-25,10.48-16.42,0-34.1-9.86-34.1-41.3Z" transform="translate(-325.53 -293.64)"/><path class="f" d="M756,454.48V437a70.69,70.69,0,0,0-12-.94c-9.22,0-14.86,3.75-14.86,12s4.85,12.2,12.52,12.2A20.61,20.61,0,0,0,756,454.48ZM706.88,449c0-17.2,13.45-25,32.38-25A65.9,65.9,0,0,1,756,425.86v-8.6c0-8.29-4.54-12.2-14.24-12.2s-14.86,3.75-18.92,7.35H712.36V395.67c7.66-3.44,18-6.25,33.94-6.25,21.27,0,32.53,6.88,32.53,25.65v40.82a4.34,4.34,0,0,0,3.91,3.91h4.38v10.95c-3.12,1.88-7.82,3.13-13.76,3.13-9.54,0-14.39-3.75-16.42-10.32-6.1,7.5-13.77,10.16-23.78,10.16-15.33,0-26.28-8.44-26.28-24.71Z" transform="translate(-325.53 -293.64)"/><path class="f" d="M782.62,390.67h9.69v-21.9h22.84v21.9h16.58v13.76H815.15v45.05c0,8.76,3.13,10.32,11.57,10.32h5.63V472a48.33,48.33,0,0,1-14.7,2c-15.8,0-25.34-5-25.34-22.06V404.43h-9.69V390.67Z" transform="translate(-325.53 -293.64)"/><path class="f" d="M884.74,454.48V437a70.48,70.48,0,0,0-12-.94c-9.23,0-14.86,3.75-14.86,12s4.85,12.2,12.52,12.2a20.57,20.57,0,0,0,14.38-5.79ZM835.63,449c0-17.2,13.45-25,32.38-25a65.82,65.82,0,0,1,16.73,1.88v-8.6c0-8.29-4.53-12.2-14.23-12.2s-14.86,3.75-18.92,7.35H841.11V395.67c7.66-3.44,18-6.25,33.94-6.25,21.27,0,32.53,6.88,32.53,25.65v40.82a4.34,4.34,0,0,0,3.91,3.91h4.38v10.95c-3.13,1.88-7.82,3.13-13.76,3.13-9.54,0-14.39-3.75-16.43-10.32-6.1,7.5-13.76,10.16-23.77,10.16-15.33,0-26.28-8.44-26.28-24.71Z" transform="translate(-325.53 -293.64)"/><path class="f" d="M924.75,461.21a12.83,12.83,0,1,1,12.82,12.51,12.52,12.52,0,0,1-12.82-12.51Z" transform="translate(-325.53 -293.64)"/><path class="f" d="M1003.26,419.45,987,472.78H967.45l-18.46-64c-.94-2.5-2.82-4.38-5-4.38h-3V390.67H977.3v13.76h-7.2l10.8,41h.31l15.95-54.74h17.52l16,54.74h.31l8.29-30.65c2-7.2,1.25-10.33-5.16-10.33h-2.35V390.67H1066v13.76h-2.66a6,6,0,0,0-5.95,4.85l-18.61,63.5h-19.55l-15.64-53.33Z" transform="translate(-325.53 -293.64)"/><path class="f" d="M1127,432.27c0-18.61-8.6-27.84-20-27.84s-20,9.23-20,27.84,8.61,27.22,20,27.22,20-8.76,20-27.22Zm-63.19-.15c0-26.44,19.24-42.7,43.17-42.7s43.17,16.26,43.17,42.7c0,26.27-19.23,41.76-43.17,41.76s-43.17-15.49-43.17-41.76Z" transform="translate(-325.53 -293.64)"/><path class="f" d="M1150.62,459.8h5.48a4.49,4.49,0,0,0,3.91-3.91V408.66c0-1.72-2-4.23-3.91-4.23H1150V390.67h28c2.66,0,4.39,2.34,4.7,11.88,5.47-6.72,11.88-12.66,22.68-12.66a17.54,17.54,0,0,1,5,.78v16.89h-3.91c-11.89,0-19.08,2.5-23.62,5V459.8h11.42v13h-43.64v-13Z" transform="translate(-325.53 -293.64)"/><path class="f" d="M1211.91,459.8h6.1a4.48,4.48,0,0,0,3.91-3.91V381c0-1.72-2-4.22-3.91-4.22h-6.57V363.3h29.41c2.66,0,3.91,1.87,3.91,5.31v87.28a4.48,4.48,0,0,0,3.91,3.91h6.41v13h-43.17v-13Z" transform="translate(-325.53 -293.64)"/><path class="f" d="M1315.32,453.7v-45a38,38,0,0,0-15.18-3.6c-10.79,0-20.49,6.25-20.49,27.06,0,22.52,9.23,28.15,18.62,28.15a25,25,0,0,0,17-6.57Zm-58.82-21c0-31,19.4-43.32,35.35-43.32,11.42,0,18.15,4.22,23.47,10.63v-23.3h-10.64V363.3h29.56c2.66,0,3.91,2,3.91,5.31v87c0,1.72,2,4.22,3.91,4.22h5.63v13h-27.84c-2.34,0-3.75-3.44-4.22-9.22-5.32,6.1-13.61,10.48-25,10.48-16.42,0-34.1-9.86-34.1-41.3Z" transform="translate(-325.53 -293.64)"/></svg>